<svg width="46" height="46" viewBox="0 0 46 46" fill="none" xmlns="http://www.w3.org/2000/svg">
<circle cx="23.0045" cy="22.9999" r="21.8548" transform="rotate(90 23.0045 22.9999)" fill="black" stroke="black"/>
<path d="M13.0352 21.758H16.1968C16.5087 21.758 16.7445 22.0405 16.6887 22.3474L14.4192 34.8298C14.3634 35.1368 14.5992 35.4193 14.9111 35.4193H31.1C31.4119 35.4193 31.6477 35.1368 31.5919 34.8298L29.3224 22.3474C29.2666 22.0405 29.5024 21.758 29.8143 21.758H32.9759C33.4213 21.758 33.6444 21.2194 33.3294 20.9044L23.3591 10.9341C23.1638 10.7389 22.8473 10.7389 22.652 10.9341L12.6817 20.9044C12.3667 21.2194 12.5898 21.758 13.0352 21.758Z" stroke="white" stroke-width="2"/>
</svg>
