<svg width="514" height="60" viewBox="0 0 514 60" fill="none" xmlns="http://www.w3.org/2000/svg">
<g clip-path="url(#clip0_871_329)">
<path d="M231.294 47.7057L230.479 57.1585H214.336L221.921 2.21887H246.781L254.604 57.1585H237.974L237 47.7057H231.294ZM235.698 34.5736C235.449 29.9321 234.883 18.2717 234.555 13.9472H233.819C233.491 19.4943 232.676 29.7623 232.438 34.5736H235.698Z" fill="black"/>
<path d="M257.539 2.21887H277.588C287.448 2.21887 293.324 6.62264 293.324 16.4038C293.324 23.3321 290.392 26.1849 286.237 27.6566C290.392 29.1283 294.716 32.5472 294.716 40.6189C294.716 52.1094 288.762 57.1698 276.705 57.1698H257.55V2.21887H257.539ZM274.577 23.1623C276.864 23.1623 277.43 21.8604 277.43 18.0226C277.43 14.1849 276.943 12.883 274.498 12.883H273.116V23.1509H274.588L274.577 23.1623ZM273.116 46.4717H274.26C276.954 46.4717 277.769 45.2491 277.769 39.8717C277.769 33.8377 276.875 33.1019 274.101 33.1019H273.128V46.4717H273.116Z" fill="black"/>
<path d="M336.125 29.4453C336.125 49.0868 330.985 58.3019 315.827 58.3019C301.642 58.3019 296.672 48.5207 296.672 28.9585C296.672 10.6189 301.642 0.996216 316.404 0.996216C331.166 0.996216 336.136 10.449 336.136 29.4453H336.125ZM313.947 29.117C313.947 44.7736 314.276 46.5623 316.393 46.5623C318.51 46.5623 318.838 44.683 318.838 29.117C318.838 13.5509 318.589 12.7358 316.393 12.7358C314.513 12.7358 313.947 14.117 313.947 29.117Z" fill="black"/>
<path d="M356.573 2.21887V42.2377C356.573 44.7623 356.901 46.6415 358.939 46.6415C360.977 46.6415 361.135 44.8528 361.135 42.2377V2.21887H377.437V40.7774C377.437 54.4755 369.037 58.3019 358.441 58.3019C347.109 58.3019 340.43 53.7396 340.43 40.6075V2.21887H356.573Z" fill="black"/>
<path d="M389.749 14.3547H380.375V2.21887H415.017V14.366H405.801V57.1585H389.737V14.3547H389.749Z" fill="black"/>
<path d="M461.728 43.5396C461.728 36.2038 461.807 23.8076 461.977 16.6415H461.411C460.267 29.6038 458.558 50.0604 457.822 57.1585H446.49C445.675 46.6415 444.124 28.3811 442.98 16.5623H442.414C442.573 23.083 442.822 33.6792 442.822 43.2226V57.1585H429.203V2.21887H450.237C450.724 7.67548 451.946 20.966 452.354 27.7359H452.92C453.814 18.8491 454.143 12.8151 455.365 2.21887H476.637V57.1585H461.716V43.5396H461.728Z" fill="black"/>
<path d="M119.193 26.8415H61.1172V37.9358H119.193V26.8415Z" fill="black"/>
<path d="M57.1582 0.430176H38.5469V59.3207H57.1582V0.430176Z" fill="black"/>
<path d="M122.347 1.3811H155.833C155.879 6.13582 155.799 10.2 155.596 13.5736C155.392 16.9471 154.928 19.766 154.203 22.0302C153.479 24.2943 152.381 26.117 150.909 27.4981C149.437 28.8792 147.456 29.932 144.965 30.6566C142.475 31.3811 139.339 31.8792 135.558 32.1509C131.777 32.4226 127.214 32.6037 121.871 32.6943L120.648 17.8188C124.724 17.683 127.95 17.5358 130.328 17.3773C132.705 17.2188 134.46 17.049 135.592 16.8679C136.724 16.6868 137.414 16.4377 137.765 16.2566C138.694 15.7698 138.852 14.4226 138.852 14.1056H122.347V1.3811Z" fill="black"/>
<path d="M179.336 24.4075H175.668V31.8792H157.328V0.430176H175.668V6.67923H179.336V24.4075Z" fill="black"/>
<path d="M31.5509 6.03398C28.4943 3.56605 24.0453 2.33209 18.2038 2.33209C14.3094 2.33209 11.0038 2.92077 8.28679 4.09813C5.56981 5.27549 3.50943 6.87171 2.10566 8.88681C0.701887 10.9019 0 13.1321 0 15.5774V44.1057C0.045283 46.5962 0.781132 48.8491 2.20755 50.8642C3.63396 52.8793 5.69434 54.4755 8.38868 55.6528C11.083 56.8302 14.3547 57.4189 18.2038 57.4189C24.1811 57.4189 28.7094 56.1849 31.7887 53.717C34.8679 51.2491 36.4075 48 36.4075 43.9698V15.3736C36.2264 11.6151 34.6075 8.5019 31.5509 6.03398ZM20.7623 20.8981V38.8415V38.9208C20.7623 39.634 19.9925 40.2793 18.2038 40.2793C16.4151 40.2793 15.6453 39.5434 15.6453 38.9094V38.8528V20.9094V20.8302C15.6453 20.117 16.4151 19.4717 18.2038 19.4717C19.9925 19.4717 20.7623 20.2076 20.7623 20.8415V20.8981Z" fill="black"/>
<path d="M115.541 0H62.2883V9.66793H85.2241L62.2656 15V24.6792H115.518V15H90.8052L115.541 9.66793V0Z" fill="black"/>
<path d="M62.9531 40.0981V59.2528H117.361V40.0981H62.9531ZM101.297 49.9471H79.006V47.9207H101.297V49.9471Z" fill="black"/>
<path d="M175.667 42.4076C174.207 42 172.633 41.717 170.991 41.5359C171.603 40.2 171.105 35.083 171.105 35.083H154.576C154.644 35.6717 154.803 38.1623 154.497 39.1698C154.497 39.1698 154.497 39.1698 154.497 39.1812C154.169 40.8 153.139 42.8491 149.867 43.483V35.0717H139.146V37.9245H133.984V35.0717H122.414V59.1057H149.856V50.8868L152.708 59.9887C155.425 59.2189 157.825 58.1661 159.908 56.8302C161.991 55.4944 163.78 53.9208 165.274 52.1095L164.256 57.6793C166.701 57.7698 168.897 57.9849 170.844 58.3245C172.791 58.6642 174.58 59.151 176.21 59.7849L179.607 44.0264C178.61 43.3925 177.297 42.8491 175.667 42.3962V42.4076ZM139.146 49.5623H133.984V46.7774H139.146V49.5623Z" fill="black"/>
<path d="M201.161 15.8377H194.062V23.6151H201.161V15.8377Z" fill="black"/>
<path d="M201.161 40.1321H194.062V47.9094H201.161V40.1321Z" fill="black"/>
<path d="M513.316 45.1245V45.0906H500.705H496.029V35.1509H511.12V23.0038H496.029V14.3547H511.765V2.21887H480.305V57.1585H511.527H513.316V45.1245Z" fill="black"/>
</g>
<defs>
<clipPath id="clip0_871_329">
<rect width="513.317" height="60" fill="white"/>
</clipPath>
</defs>
</svg>
