<svg width="374" height="60" viewBox="0 0 374 60" fill="none" xmlns="http://www.w3.org/2000/svg">
<g clip-path="url(#clip0_871_313)">
<path d="M228.139 40.9472C228.139 45.8377 228.796 47.4679 230.663 47.4679C232.531 47.4679 233.029 45.9962 233.029 43.7207C233.029 40.7094 231.648 38.9887 225.852 35.5698C216.399 29.9434 212.89 25.4604 212.89 17.6377C212.89 7.6981 218.437 1.25659 230.663 1.25659C243.546 1.25659 248.267 8.26414 248.267 18.7811H233.029C233.029 13.8906 232.543 12.3396 230.743 12.3396C229.362 12.3396 228.784 13.3132 228.784 15.4415C228.784 17.5698 229.271 19.1094 234.569 22.2113C245.245 28.4038 249.003 32.649 249.003 41.5358C249.003 51.4868 243.954 58.5736 230.901 58.5736C216.886 58.5736 212.482 52.2113 212.312 40.9698H228.128L228.139 40.9472Z" fill="black"/>
<path d="M252.344 2.47925H268.487V22.1208H273.049V2.47925H289.351V57.4189H273.049V35.2415H268.487V57.4189H252.344V2.47925Z" fill="black"/>
<path d="M332.875 29.7056C332.875 49.3472 327.735 58.5622 312.577 58.5622C298.392 58.5622 293.422 48.7811 293.422 29.2189C293.422 10.8792 298.392 1.25659 313.154 1.25659C327.916 1.25659 332.886 10.7094 332.886 29.7056H332.875ZM310.697 29.3773C310.697 45.0339 311.026 46.8226 313.143 46.8226C315.26 46.8226 315.588 44.9434 315.588 29.3773C315.588 13.8113 315.339 12.9962 313.143 12.9962C311.263 12.9962 310.697 14.3773 310.697 29.3773Z" fill="black"/>
<path d="M336.781 2.47925H356.593C366.781 2.47925 373.381 7.44906 373.381 19.2679C373.381 31.9811 367.596 37.0415 356.344 37.0415H352.676V57.4189H336.781V2.47925ZM352.676 25.3019H353.898C356.672 25.3019 357.317 23.9208 357.317 19.2679C357.317 14.6151 356.174 13.5623 353.728 13.5623H352.664V25.3019H352.676Z" fill="black"/>
<path d="M119.193 26.8415H61.1172V37.9359H119.193V26.8415Z" fill="black"/>
<path d="M57.1582 0.430176H38.5469V59.3207H57.1582V0.430176Z" fill="black"/>
<path d="M122.347 1.38113H155.833C155.879 6.13585 155.799 10.2 155.596 13.5736C155.392 16.9472 154.928 19.766 154.203 22.0302C153.479 24.2943 152.381 26.117 150.909 27.4981C149.437 28.8792 147.456 29.9321 144.965 30.6566C142.475 31.3811 139.339 31.8792 135.558 32.1509C131.777 32.4226 127.214 32.6038 121.871 32.6943L120.648 17.8189C124.724 17.683 127.95 17.5359 130.328 17.3774C132.705 17.2189 134.46 17.0491 135.592 16.8679C136.724 16.6868 137.414 16.4377 137.765 16.2566C138.694 15.7698 138.852 14.4226 138.852 14.1057H122.347V1.38113Z" fill="black"/>
<path d="M179.336 24.4075H175.668V31.8792H157.328V0.430176H175.668V6.67923H179.336V24.4075Z" fill="black"/>
<path d="M31.5509 6.03395C28.4943 3.56602 24.0453 2.33206 18.2038 2.33206C14.3094 2.33206 11.0038 2.92074 8.28679 4.0981C5.56981 5.27546 3.50943 6.87168 2.10566 8.88678C0.701887 10.9019 0 13.1321 0 15.5773V44.1056C0.045283 46.5962 0.781132 48.849 2.20755 50.8641C3.63396 52.8792 5.69434 54.4755 8.38868 55.6528C11.083 56.8302 14.3547 57.4189 18.2038 57.4189C24.1811 57.4189 28.7094 56.1849 31.7887 53.717C34.8679 51.249 36.4075 48 36.4075 43.9698V15.3736C36.2264 11.6151 34.6075 8.50187 31.5509 6.03395ZM20.7623 20.8981V38.8415V38.9207C20.7623 39.6339 19.9925 40.2792 18.2038 40.2792C16.4151 40.2792 15.6453 39.5434 15.6453 38.9094V38.8528V20.9094V20.8302C15.6453 20.117 16.4151 19.4717 18.2038 19.4717C19.9925 19.4717 20.7623 20.2075 20.7623 20.8415V20.8981Z" fill="black"/>
<path d="M115.541 0H62.2883V9.66793H85.2241L62.2656 15V24.6792H115.518V15H90.8052L115.541 9.66793V0Z" fill="black"/>
<path d="M62.9531 40.0981V59.2528H117.361V40.0981H62.9531ZM101.297 49.9472H79.006V47.9208H101.297V49.9472Z" fill="black"/>
<path d="M175.667 42.4075C174.207 42 172.633 41.717 170.991 41.5358C171.603 40.2 171.105 35.083 171.105 35.083H154.576C154.644 35.6717 154.803 38.1623 154.497 39.1698C154.497 39.1698 154.497 39.1698 154.497 39.1811C154.169 40.8 153.139 42.849 149.867 43.483V35.0717H139.146V37.9245H133.984V35.0717H122.414V59.1056H149.856V50.8868L152.708 59.9887C155.425 59.2189 157.825 58.166 159.908 56.8302C161.991 55.4943 163.78 53.9207 165.274 52.1094L164.256 57.6792C166.701 57.7698 168.897 57.9849 170.844 58.3245C172.791 58.6641 174.58 59.1509 176.21 59.7849L179.607 44.0264C178.61 43.3924 177.297 42.849 175.667 42.3962V42.4075ZM139.146 49.5623H133.984V46.7773H139.146V49.5623Z" fill="black"/>
<path d="M201.161 14.966H194.062V22.7434H201.161V14.966Z" fill="black"/>
<path d="M201.161 39.2604H194.062V47.0377H201.161V39.2604Z" fill="black"/>
</g>
<defs>
<clipPath id="clip0_871_313">
<rect width="373.381" height="60" fill="white"/>
</clipPath>
</defs>
</svg>
