<svg width="563" height="60" viewBox="0 0 563 60" fill="none" xmlns="http://www.w3.org/2000/svg">
<g clip-path="url(#clip0_871_277)">
<path d="M212.32 2.60376H229.766C243.939 2.60376 250.573 8.98867 250.573 29.1396C250.573 50.4339 243.86 57.8038 229.856 57.8038H212.332V2.60376H212.32ZM228.532 46.5056H229.347C232.867 46.5056 233.117 44.4566 233.117 28.5736C233.117 15.3056 232.46 13.9132 229.426 13.9132H228.52V46.5056H228.532Z" fill="black"/>
<path d="M285.204 35.6943H270.057V45.6906H285.861V57.8151H254.242V2.60376H285.85V14.8075H270.046V23.4906H285.193V35.6943H285.204Z" fill="black"/>
<path d="M305.516 41.2642C305.516 46.1774 306.172 47.8189 308.052 47.8189C309.931 47.8189 310.429 46.3472 310.429 44.0491C310.429 41.0151 309.037 39.2943 303.218 35.8642C293.72 30.2151 290.199 25.7094 290.199 17.8528C290.199 7.85661 295.769 1.39246 308.052 1.39246C320.991 1.39246 325.746 8.43397 325.746 18.9962H310.429C310.429 14.083 309.942 12.5321 308.131 12.5321C306.738 12.5321 306.161 13.517 306.161 15.6453C306.161 17.7736 306.648 19.3359 311.98 22.4377C322.712 28.6642 326.482 32.9208 326.482 41.8528C326.482 51.8491 321.399 58.9698 308.301 58.9698C294.218 58.9698 289.791 52.5849 289.633 41.2755H305.516V41.2642Z" fill="black"/>
<path d="M346.461 2.60376V57.8038H330.25V2.60376H346.461Z" fill="black"/>
<path d="M389.376 57.8038H377.908C377.738 56.8189 377.5 55.0189 377.5 53.5472C375.531 57.4755 371.353 58.9472 366.859 58.9472C356.625 58.9472 350.398 53.5359 350.398 30.4415C350.398 5.87548 358.912 1.44907 371.036 1.44907C387.089 1.44907 389.138 12.4189 389.217 18.6453H372.678C372.598 15.2038 372.429 13.1547 370.47 13.1547C368.172 13.1547 367.764 15.3623 367.764 30.6793C367.764 45.0906 368.421 47.1396 370.391 47.1396C372.598 47.1396 373.006 44.434 373.006 41.083V36.9057H370.391V25.4377H389.387V57.7925L389.376 57.8038Z" fill="black"/>
<path d="M394.605 57.8038V2.60376H411.801C416.228 23.5698 417.699 30.3622 418.107 32.4113H418.594C417.937 24.5547 417.45 13.5736 417.45 5.79621V2.60376H431.703V57.8038H414.179C409.424 32.9887 408.688 28.3245 408.281 26.3547H407.703C408.19 32.7396 408.847 47.2415 408.847 54.6906V57.8038H394.594H394.605Z" fill="black"/>
<path d="M448.328 2.60376H464.539V45.3509H479.856L478.305 57.8038H448.328V2.60376Z" fill="black"/>
<path d="M498.769 48.3056L497.953 57.8038H481.742L489.361 2.60376H514.346L522.203 57.8038H505.493L504.508 48.3056H498.78H498.769ZM503.195 35.117C502.946 30.4528 502.38 18.7358 502.052 14.4H501.316C500.987 19.9698 500.172 30.283 499.923 35.117H503.195Z" fill="black"/>
<path d="M525.133 2.60376H545.284C555.189 2.60376 561.088 7.03017 561.088 16.8566C561.088 23.8189 558.144 26.683 553.967 28.1547C558.144 29.6264 562.48 33.0679 562.48 41.1736C562.48 52.7207 556.503 57.8038 544.378 57.8038H525.133V2.60376ZM542.25 23.649C544.548 23.649 545.114 22.3358 545.114 18.4868C545.114 14.6377 544.627 13.3245 542.159 13.3245H540.767V23.6377H542.238L542.25 23.649ZM540.778 47.0717H541.922C544.627 47.0717 545.442 45.849 545.442 40.4377C545.442 34.3811 544.537 33.6453 541.752 33.6453H540.767V47.0717H540.778Z" fill="black"/>
<path d="M119.193 26.8415H61.1172V37.9359H119.193V26.8415Z" fill="black"/>
<path d="M57.1582 0.430176H38.5469V59.3207H57.1582V0.430176Z" fill="black"/>
<path d="M122.347 1.38113H155.833C155.879 6.13585 155.799 10.2 155.596 13.5736C155.392 16.9472 154.928 19.766 154.203 22.0302C153.479 24.2943 152.381 26.117 150.909 27.4981C149.437 28.8792 147.456 29.9321 144.965 30.6566C142.475 31.3811 139.339 31.8792 135.558 32.1509C131.777 32.4226 127.214 32.6038 121.871 32.6943L120.648 17.8189C124.724 17.683 127.95 17.5359 130.328 17.3774C132.705 17.2189 134.46 17.0491 135.592 16.8679C136.724 16.6868 137.414 16.4377 137.765 16.2566C138.694 15.7698 138.852 14.4226 138.852 14.1057H122.347V1.38113Z" fill="black"/>
<path d="M179.336 24.4075H175.668V31.8792H157.328V0.430176H175.668V6.67923H179.336V24.4075Z" fill="black"/>
<path d="M31.5509 6.03395C28.4943 3.56602 24.0453 2.33206 18.2038 2.33206C14.3094 2.33206 11.0038 2.92074 8.28679 4.0981C5.56981 5.27546 3.50943 6.87168 2.10566 8.88678C0.701887 10.9019 0 13.1321 0 15.5773V44.1056C0.045283 46.5962 0.781132 48.849 2.20755 50.8641C3.63396 52.8792 5.69434 54.4755 8.38868 55.6528C11.083 56.8302 14.3547 57.4189 18.2038 57.4189C24.1811 57.4189 28.7094 56.1849 31.7887 53.717C34.8679 51.249 36.4075 48 36.4075 43.9698V15.3736C36.2264 11.6151 34.6076 8.50187 31.5509 6.03395ZM20.7623 20.8981V38.8415V38.9207C20.7623 39.6339 19.9925 40.2792 18.2038 40.2792C16.4151 40.2792 15.6453 39.5434 15.6453 38.9094V38.8528V20.9094V20.8302C15.6453 20.117 16.4151 19.4717 18.2038 19.4717C19.9925 19.4717 20.7623 20.2075 20.7623 20.8415V20.8981Z" fill="black"/>
<path d="M115.541 0H62.2883V9.66793H85.2241L62.2656 15V24.6792H115.518V15H90.8052L115.541 9.66793V0Z" fill="black"/>
<path d="M62.9531 40.0981V59.2528H117.361V40.0981H62.9531ZM101.297 49.9472H79.006V47.9208H101.297V49.9472Z" fill="black"/>
<path d="M175.667 42.4075C174.207 42 172.633 41.717 170.991 41.5358C171.603 40.2 171.105 35.083 171.105 35.083H154.576C154.644 35.6717 154.803 38.1623 154.497 39.1698C154.497 39.1698 154.497 39.1698 154.497 39.1811C154.169 40.8 153.139 42.849 149.867 43.483V35.0717H139.146V37.9245H133.984V35.0717H122.414V59.1056H149.856V50.8868L152.708 59.9887C155.425 59.2189 157.825 58.166 159.908 56.8302C161.991 55.4943 163.78 53.9207 165.274 52.1094L164.256 57.6792C166.701 57.7698 168.897 57.9849 170.844 58.3245C172.791 58.6641 174.58 59.1509 176.21 59.7849L179.607 44.0264C178.61 43.3924 177.297 42.849 175.667 42.3962V42.4075ZM139.146 49.5623H133.984V46.7773H139.146V49.5623Z" fill="black"/>
<path d="M201.161 13.834H194.062V21.6113H201.161V13.834Z" fill="black"/>
<path d="M201.161 38.1283H194.062V45.9057H201.161V38.1283Z" fill="black"/>
</g>
<defs>
<clipPath id="clip0_871_277">
<rect width="562.483" height="60" fill="white"/>
</clipPath>
</defs>
</svg>
