<svg width="393" height="60" viewBox="0 0 393 60" fill="none" xmlns="http://www.w3.org/2000/svg">
<g clip-path="url(#clip0_871_297)">
<path d="M219.273 57.5887L212.594 2.64906H229.303C229.631 10.5509 230.198 28.4038 230.447 36.2377H231.182C232.247 26.5358 232.813 13.9811 233.877 2.64906H246.839C247.654 12.0226 248.141 25.6415 249.205 36.1472H250.02C250.269 27.5094 250.994 8.10566 251.243 2.64906H266.571L259.077 57.5887H242.288C241.473 50.8189 240.737 43.6528 239.764 32.8868H239.107C238.213 42.9962 237.228 49.517 236.413 57.5887H219.296H219.273Z" fill="black"/>
<path d="M307.39 29.8642C307.39 49.5057 302.251 58.7208 287.092 58.7208C272.907 58.7208 267.938 48.9396 267.938 29.3774C267.938 11.0377 272.907 1.41509 287.67 1.41509C302.432 1.41509 307.402 10.8679 307.402 29.8642H307.39ZM285.213 29.5472C285.213 45.1925 285.541 46.9925 287.658 46.9925C289.775 46.9925 290.104 45.1132 290.104 29.5472C290.104 13.9811 289.854 13.166 287.658 13.166C285.779 13.166 285.213 14.5472 285.213 29.5472Z" fill="black"/>
<path d="M327.112 36.0679V57.5887H311.297V2.63773H332.003C343.414 2.63773 347.976 8.01509 347.976 17.8868C347.976 24.9736 345.282 28.8113 340.969 30.4415C345.701 32.1509 347.569 35.8981 347.569 43.2453V44.6264C347.569 50.0038 347.648 56.117 347.897 57.5887H332.082C331.753 56.2075 331.425 50.0943 331.425 43.6528V42.0226C331.425 36.883 330.859 36.0679 328.086 36.0679H327.112ZM327.191 25.0641H328.006C330.78 25.0641 331.753 24.4075 331.753 19.0302C331.753 14.5472 331.267 13.5736 328.335 13.5736H327.191V25.0641Z" fill="black"/>
<path d="M352.617 2.63773H368.183V23.4226C370.47 16.4943 373.402 7.44905 374.953 2.63773H391.912L382.21 24.566L392.161 57.5774H374.874L370.391 38.9887L368.195 43.2226V57.566H352.628V2.63773H352.617Z" fill="black"/>
<path d="M119.193 26.8415H61.1172V37.9358H119.193V26.8415Z" fill="black"/>
<path d="M57.1582 0.430191H38.5469V59.3208H57.1582V0.430191Z" fill="black"/>
<path d="M122.347 1.38113H155.833C155.879 6.13585 155.799 10.2 155.596 13.5736C155.392 16.9472 154.928 19.766 154.203 22.0302C153.479 24.2943 152.381 26.117 150.909 27.4981C149.437 28.8792 147.456 29.9321 144.965 30.6566C142.475 31.3811 139.339 31.8792 135.558 32.1509C131.777 32.4226 127.214 32.6038 121.871 32.6943L120.648 17.8189C124.724 17.683 127.95 17.5359 130.328 17.3774C132.705 17.2189 134.46 17.0491 135.592 16.8679C136.724 16.6868 137.414 16.4377 137.765 16.2566C138.694 15.7698 138.852 14.4226 138.852 14.1057H122.347V1.38113Z" fill="black"/>
<path d="M179.336 24.4075H175.668V31.8792H157.328V0.430191H175.668V6.67925H179.336V24.4075Z" fill="black"/>
<path d="M31.5509 6.03396C28.4943 3.56604 24.0453 2.33208 18.2038 2.33208C14.3094 2.33208 11.0038 2.92076 8.28679 4.09811C5.56981 5.27547 3.50943 6.8717 2.10566 8.88679C0.701887 10.9019 0 13.1321 0 15.5774V44.1057C0.045283 46.5962 0.781132 48.8491 2.20755 50.8641C3.63396 52.8792 5.69434 54.4755 8.38868 55.6528C11.083 56.8302 14.3547 57.4189 18.2038 57.4189C24.1811 57.4189 28.7094 56.1849 31.7887 53.717C34.8679 51.2491 36.4075 48 36.4075 43.9698V15.3736C36.2264 11.6151 34.6075 8.50189 31.5509 6.03396ZM20.7623 20.8981V38.8415V38.9208C20.7623 39.634 19.9925 40.2792 18.2038 40.2792C16.4151 40.2792 15.6453 39.5434 15.6453 38.9094V38.8528V20.9094V20.8302C15.6453 20.117 16.4151 19.4717 18.2038 19.4717C19.9925 19.4717 20.7623 20.2075 20.7623 20.8415V20.8981Z" fill="black"/>
<path d="M115.541 0H62.2883V9.66793H85.2241L62.2656 15V24.6792H115.518V15H90.8052L115.541 9.66793V0Z" fill="black"/>
<path d="M62.9531 40.0981V59.2528H117.361V40.0981H62.9531ZM101.297 49.9472H79.006V47.9208H101.297V49.9472Z" fill="black"/>
<path d="M175.667 42.4075C174.207 42 172.633 41.717 170.991 41.5359C171.603 40.2 171.105 35.083 171.105 35.083H154.576C154.644 35.6717 154.803 38.1623 154.497 39.1698C154.497 39.1698 154.497 39.1698 154.497 39.1811C154.169 40.8 153.139 42.8491 149.867 43.483V35.0717H139.146V37.9245H133.984V35.0717H122.414V59.1057H149.856V50.8868L152.708 59.9887C155.425 59.2189 157.825 58.166 159.908 56.8302C161.991 55.4943 163.78 53.9208 165.274 52.1094L164.256 57.6792C166.701 57.7698 168.897 57.9849 170.844 58.3245C172.791 58.6642 174.58 59.1509 176.21 59.7849L179.607 44.0264C178.61 43.3925 177.297 42.8491 175.667 42.3962V42.4075ZM139.146 49.5623H133.984V46.7774H139.146V49.5623Z" fill="black"/>
<path d="M201.161 14.5472H194.062V22.3245H201.161V14.5472Z" fill="black"/>
<path d="M201.161 38.8415H194.062V46.6189H201.161V38.8415Z" fill="black"/>
</g>
<defs>
<clipPath id="clip0_871_297">
<rect width="392.151" height="60" fill="white"/>
</clipPath>
</defs>
</svg>
