<svg width="387" height="129" viewBox="0 0 387 129" fill="none" xmlns="http://www.w3.org/2000/svg">
<g clip-path="url(#clip0_871_348)">
<path d="M256.268 57.7092H131.406V81.5619H256.268V57.7092Z" fill="black"/>
<path d="M122.889 0.924393H82.875V127.539H122.889V0.924393Z" fill="black"/>
<path d="M263.042 2.96939H335.038C335.135 13.192 334.965 21.9299 334.527 29.1831C334.089 36.4363 333.091 42.4968 331.533 47.3647C329.975 52.2327 327.614 56.1513 324.45 59.1208C321.286 62.0902 317.027 64.3538 311.672 65.9115C306.317 67.4692 299.575 68.5402 291.446 69.1243C283.316 69.7085 273.508 70.0979 262.019 70.2926L259.391 38.3104C268.153 38.0184 275.09 37.7019 280.201 37.3612C285.312 37.0204 289.085 36.6553 291.519 36.2659C293.953 35.8765 295.438 35.341 296.192 34.9516C298.188 33.905 298.529 31.0086 298.529 30.3271H263.042V2.96939Z" fill="black"/>
<path d="M385.558 52.4756H377.672V68.5397H338.242V0.924393H377.672V14.3598H385.558V52.4756Z" fill="black"/>
<path d="M67.8343 12.973C61.2627 7.66696 51.6972 5.01395 39.138 5.01395C30.7652 5.01395 23.658 6.2796 17.8166 8.81092C11.9751 11.3422 7.54526 14.7741 4.52716 19.1065C1.50905 23.439 0 28.2339 0 33.4912V94.8269C0.0973582 100.182 1.67943 105.025 4.74621 109.358C7.813 113.69 12.2428 117.122 18.0356 119.653C23.8284 122.185 30.8626 123.45 39.138 123.45C51.9893 123.45 61.7251 120.797 68.3455 115.491C74.9658 110.185 78.276 103.2 78.276 94.5348V33.0531C77.8866 24.9724 74.406 18.279 67.8343 12.973ZM44.6387 44.9308V83.509V83.6794C44.6387 85.2128 42.9837 86.6001 39.138 86.6001C35.2924 86.6001 33.6373 85.0181 33.6373 83.655V83.5334V44.9552V44.7848C33.6373 43.2514 35.2924 41.864 39.138 41.864C42.9837 41.864 44.6387 43.4461 44.6387 44.8091V44.9308Z" fill="black"/>
<path d="M135.352 86.2105V127.393H252.327V86.2105H135.352ZM213.019 106.218H174.149C172.615 106.218 171.228 105.293 171.228 103.151C171.228 101.009 172.81 100.084 174.173 100.084H213.043C214.577 100.084 215.964 101.009 215.964 103.151C215.964 105.293 214.382 106.218 213.019 106.218Z" fill="black"/>
<path d="M377.682 91.1762C374.542 90.2999 371.159 89.6915 367.629 89.302C367.922 88.1581 368.043 86.722 368.092 85.3347C368.092 85.2617 368.092 85.14 368.092 85.0183C368.141 83.0224 368.043 81.1483 367.97 80.2477C367.922 78.4953 367.849 76.9619 367.849 76.9619H332.313C332.459 78.2275 332.8 82.0732 332.142 84.2394C332.142 84.2394 332.142 84.2394 332.142 84.2637C331.437 87.7443 329.222 92.1498 322.187 93.5128V76.9619H299.138V83.0954H288.039V76.9619H263.164V127.101H322.163V109.431L328.297 129C334.138 127.345 339.298 125.081 343.777 122.209C348.255 119.337 352.101 115.954 355.314 112.06L353.123 124.035C358.38 124.229 363.102 124.692 367.289 125.422C371.475 126.152 375.321 127.199 378.826 128.562L386.128 94.6811C383.986 93.3181 381.162 92.1498 377.657 91.1762H377.682ZM299.138 100.62V105.147C299.138 106.68 299.138 108.068 293.637 108.068C288.136 108.068 288.136 106.486 288.136 105.123V100.644V100.474C288.136 98.9405 288.355 97.5531 293.637 97.5531C298.919 97.5531 299.138 99.1352 299.138 100.498V100.62Z" fill="black"/>
<path d="M248.417 0H133.924V20.786H183.236L133.875 32.2499V53.0602H248.368V32.2499H195.235L248.417 20.786V0Z" fill="black"/>
</g>
<defs>
<clipPath id="clip0_871_348">
<rect width="387" height="129" fill="white"/>
</clipPath>
</defs>
</svg>
