<svg width="531" height="392" viewBox="0 0 531 392" fill="none" xmlns="http://www.w3.org/2000/svg">
<g clip-path="url(#clip0_644_4878)">
<path d="M265.493 256.48C387.67 256.48 486.713 199.513 486.713 129.24C486.713 58.9673 387.67 2 265.493 2C143.317 2 44.2734 58.9673 44.2734 129.24C44.2734 199.513 143.317 256.48 265.493 256.48Z" fill="white" stroke="#231815" stroke-width="4" stroke-miterlimit="10"/>
<path d="M265.383 44.9902C265.383 44.9902 265.463 44.9902 265.503 44.9902C265.543 44.9902 265.583 44.9902 265.623 44.9902H265.383Z" fill="#EAD63F" stroke="#231815" stroke-width="4" stroke-miterlimit="10"/>
<path d="M418.841 259.07C570.651 116.38 364.721 112.23 364.721 112.23C330.741 63.31 296.411 46.01 265.491 45C234.571 46.01 200.001 63.31 166.021 112.23C166.021 112.23 -39.9085 116.38 111.901 259.07C111.901 259.07 125.551 270.4 265.311 270.4C405.071 270.4 418.841 259.07 418.841 259.07Z" fill="#EAD63F" stroke="#231815" stroke-width="4" stroke-miterlimit="10"/>
<path d="M176.931 251.31C220.092 251.31 255.081 205.124 255.081 148.15C255.081 91.1765 220.092 44.9902 176.931 44.9902C133.77 44.9902 98.7812 91.1765 98.7812 148.15C98.7812 205.124 133.77 251.31 176.931 251.31Z" fill="white" stroke="#231815" stroke-width="4" stroke-miterlimit="10"/>
<path d="M227.205 196.02C230.455 148.2 227.205 74.7998 180.635 74.7998C134.065 74.7998 128.935 155.8 133.235 196.02" stroke="#231815" stroke-width="5" stroke-miterlimit="10"/>
<path d="M122.812 191.75C134.913 195.47 159.152 202.07 179.202 202.23C202.482 202.41 226.413 195.28 237.373 191.52" stroke="#231815" stroke-width="5" stroke-miterlimit="10"/>
<path d="M356.72 251.31C399.881 251.31 434.87 205.124 434.87 148.15C434.87 91.1765 399.881 44.9902 356.72 44.9902C313.559 44.9902 278.57 91.1765 278.57 148.15C278.57 205.124 313.559 251.31 356.72 251.31Z" fill="white" stroke="#231815" stroke-width="4" stroke-miterlimit="10"/>
<path d="M406.994 196.02C410.244 148.2 406.994 74.7998 360.424 74.7998C313.854 74.7998 308.724 155.8 313.024 196.02" stroke="#231815" stroke-width="5" stroke-miterlimit="10"/>
<path d="M302.617 191.75C314.717 195.47 338.957 202.07 359.007 202.23C382.287 202.41 406.217 195.28 417.177 191.52" stroke="#231815" stroke-width="5" stroke-miterlimit="10"/>
<path d="M240.242 209.93H247.562C247.562 209.93 259.022 192.85 271.582 200.93C282.732 208.11 280.892 221.84 277.212 227.37" stroke="#231815" stroke-width="5" stroke-miterlimit="10"/>
<path d="M227.262 147.32C227.262 147.32 224.682 129.24 209.672 129.24C202.032 129.24 195.922 136.81 193.732 149.48C199.412 149.51 204.002 151.61 204.002 154.19C204.002 156.77 199.342 158.9 193.602 158.9C193.352 158.9 193.112 158.9 192.872 158.88C192.672 169.83 194.892 183.26 200.492 198.16C200.492 198.16 217.992 199.05 228.112 192.25L227.262 147.31V147.32Z" fill="#231815"/>
<path d="M405.804 147.32C405.804 147.32 403.224 129.24 388.214 129.24C380.564 129.24 374.464 136.82 372.274 149.5C372.574 149.49 372.864 149.48 373.164 149.48C378.914 149.48 383.564 151.59 383.564 154.19C383.564 156.79 378.904 158.9 373.164 158.9C372.564 158.9 371.984 158.87 371.404 158.83C371.194 169.79 373.404 183.24 379.024 198.17C379.024 198.17 396.524 199.06 406.644 192.26L405.794 147.32H405.804Z" fill="#231815"/>
<path d="M394.93 41.6899L379.93 80.3299" stroke="#231815" stroke-width="4" stroke-miterlimit="10"/>
<path d="M417.24 59.8901L392 92.7601" stroke="#231815" stroke-width="4" stroke-miterlimit="10"/>
<path d="M396.123 41.8001C397.974 41.8001 399.473 40.3003 399.473 38.4501C399.473 36.5999 397.974 35.1001 396.123 35.1001C394.273 35.1001 392.773 36.5999 392.773 38.4501C392.773 40.3003 394.273 41.8001 396.123 41.8001Z" fill="white" stroke="#231815" stroke-width="4" stroke-miterlimit="10"/>
<path d="M418.858 62.0701C420.708 62.0701 422.208 60.5703 422.208 58.7201C422.208 56.87 420.708 55.3701 418.858 55.3701C417.008 55.3701 415.508 56.87 415.508 58.7201C415.508 60.5703 417.008 62.0701 418.858 62.0701Z" fill="white" stroke="#231815" stroke-width="4" stroke-miterlimit="10"/>
<path d="M139.141 43.73L157.681 80.79" stroke="#231815" stroke-width="4" stroke-miterlimit="10"/>
<path d="M118.625 63.9297L146.825 94.2997" stroke="#231815" stroke-width="4" stroke-miterlimit="10"/>
<path d="M116.194 65.6097C118.044 65.6097 119.544 64.1098 119.544 62.2597C119.544 60.4095 118.044 58.9097 116.194 58.9097C114.344 58.9097 112.844 60.4095 112.844 62.2597C112.844 64.1098 114.344 65.6097 116.194 65.6097Z" fill="white" stroke="#231815" stroke-width="4" stroke-miterlimit="10"/>
<path d="M137.522 44.2898C139.372 44.2898 140.872 42.79 140.872 40.9398C140.872 39.0897 139.372 37.5898 137.522 37.5898C135.672 37.5898 134.172 39.0897 134.172 40.9398C134.172 42.79 135.672 44.2898 137.522 44.2898Z" fill="white" stroke="#231815" stroke-width="4" stroke-miterlimit="10"/>
</g>
<path d="M19.2383 296.697V367.4H6.54297V296.697H19.2383ZM47.0703 296.794L38.8672 324.138H29.5898L34.668 296.794H47.0703ZM54.6875 367.4V314.373H66.6016V323.357H67.2852C69.4336 317.302 74.8047 313.689 81.8359 313.689C89.0625 313.689 94.1406 317.302 96.1914 323.357H96.7773C99.1211 317.498 104.98 313.689 112.695 313.689C122.363 313.689 129.199 319.939 129.199 331.755V367.4H116.797V333.708C116.797 327.068 112.793 324.138 107.715 324.138C101.562 324.138 98.0469 328.337 98.0469 334.294V367.4H85.9375V333.22C85.9375 327.751 82.2266 324.138 76.9531 324.138C71.582 324.138 67.1875 328.533 67.1875 335.173V367.4H54.6875ZM175.879 367.4L160.84 314.373H173.535L182.91 351.677H183.398L192.871 314.373H205.469L215.039 351.482H215.527L224.805 314.373H237.5L222.461 367.4H209.473L199.512 331.462H198.828L188.867 367.4H175.879ZM267.09 368.474C251.66 368.474 241.699 357.537 241.699 341.13C241.699 324.626 251.66 313.689 267.09 313.689C282.617 313.689 292.48 324.626 292.48 341.13C292.48 357.537 282.617 368.474 267.09 368.474ZM267.188 358.513C275.684 358.513 279.883 350.798 279.883 341.033C279.883 331.365 275.684 323.552 267.188 323.552C258.496 323.552 254.297 331.365 254.297 341.033C254.297 350.798 258.496 358.513 267.188 358.513ZM302.148 367.4V314.373H314.258V323.162H314.844C316.699 317.107 321.875 313.591 327.93 313.591C329.297 313.591 331.25 313.689 332.422 313.884V325.408C331.348 325.017 328.711 324.626 326.66 324.626C319.727 324.626 314.648 329.412 314.648 336.15V367.4H302.148ZM339.844 367.4V296.697H352.344V335.662H353.223L372.266 314.373H386.816L366.309 337.224L388.086 367.4H373.242L356.934 344.646L352.344 349.529V367.4H339.844ZM394.238 367.4V314.373H406.738V367.4H394.238ZM400.586 306.853C396.68 306.853 393.359 303.826 393.359 300.017C393.359 296.306 396.68 293.279 400.586 293.279C404.59 293.279 407.812 296.306 407.812 300.017C407.812 303.826 404.59 306.853 400.586 306.853ZM431.152 336.345V367.4H418.652V314.373H430.566V323.357H431.25C433.691 317.4 439.062 313.689 446.973 313.689C458.008 313.689 465.234 320.916 465.137 333.611V367.4H452.734V335.564C452.734 328.435 448.926 324.236 442.383 324.236C435.742 324.236 431.152 328.63 431.152 336.345ZM500.195 388.396C486.133 388.396 477.246 382.146 476.367 372.185H488.77C489.648 376.775 494.043 379.021 500.391 379.021C507.812 379.021 512.695 375.798 512.695 367.986V357.83H512.109C510.156 361.736 505.957 366.619 496.777 366.619C484.57 366.619 474.902 357.732 474.902 340.447C474.902 322.966 484.57 313.689 496.875 313.689C506.25 313.689 510.156 319.255 512.109 323.064H512.695V314.373H525V368.279C525 381.853 514.551 388.396 500.195 388.396ZM500.195 356.853C508.203 356.853 512.793 350.798 512.793 340.642C512.793 330.583 508.301 323.845 500.195 323.845C491.895 323.845 487.598 330.974 487.598 340.642C487.598 350.408 491.992 356.853 500.195 356.853Z" fill="black"/>
<defs>
<clipPath id="clip0_644_4878">
<rect width="446.45" height="272.4" fill="white" transform="translate(42.2734)"/>
</clipPath>
</defs>
</svg>
