<svg width="580" height="330" viewBox="0 0 580 330" fill="none" xmlns="http://www.w3.org/2000/svg">
<rect width="580" height="330" fill="#D24B8D"/>
<g clip-path="url(#clip0_895_110)">
<path d="M440.674 63.8087C443.107 55.4362 441.593 44.2582 430.101 42.8167C422.706 41.8906 417.374 48.6634 414.932 52.5903C412.49 48.6634 407.198 42.3183 399.763 42.8167C388.197 43.5947 386.757 55.4362 389.189 63.8087C391.363 71.2956 398.972 78.4052 405.485 83.3593H400.257C394.172 83.3593 389.24 88.2966 389.24 94.3891V294.637C389.24 300.729 394.172 305.667 400.257 305.667H429.6C435.685 305.667 440.617 300.729 440.617 294.637V94.3858C440.617 88.2933 435.685 83.356 429.6 83.356H424.543C430.986 78.4018 438.504 71.2922 440.678 63.8054L440.674 63.8087Z" fill="white" stroke="#050101" stroke-width="2" stroke-miterlimit="10"/>
<path d="M340.924 209.857C340.924 204.59 340.402 199.386 339.454 194.294C324.409 94.4967 232.524 119.682 232.524 119.682V36.3233C232.524 29.1531 226.718 23.3401 219.556 23.3401H161.211C141.08 23.5186 124.916 23.8554 119.89 24.438C111.345 25.4282 99.2169 27.3041 89.3802 33.437C87.0825 34.8684 84.7679 36.7443 82.6014 38.7347C75.6141 45.1438 77.4711 56.7866 86.2717 60.3228C86.3592 60.3565 86.4433 60.3936 86.5307 60.4272C95.2304 63.849 97.3532 63.6099 104.007 62.8218C110.662 62.0337 117.242 56.7259 121.498 53.4389C126.426 49.6298 128.075 48.1614 129.205 47.4306C134.961 43.7158 140.555 42.436 147.798 42.1767C155.126 41.914 161.211 47.8212 161.211 55.1599V134.325V111.292V241.461L161.181 242.138V291.811C161.181 298.981 166.988 304.794 174.15 304.794H213.978C221.14 304.794 226.947 298.981 226.947 291.811V289.649C226.94 289.39 226.91 289.14 226.91 288.881C226.91 288.622 226.94 288.369 226.947 288.113V287.392H226.984C227.751 272.365 239.946 260.412 254.919 260.412C269.893 260.412 282.088 272.365 282.855 287.392H282.929V292.633C282.929 299.796 288.726 305.609 295.881 305.616L327.935 305.66C335.104 305.67 340.92 299.854 340.92 292.677V212.221C340.92 211.804 340.893 211.389 340.887 210.972C340.89 210.598 340.92 210.231 340.92 209.857H340.924ZM260.82 201.05C254.284 201.05 248.985 193.374 248.985 183.911C248.985 174.447 254.284 166.772 260.82 166.772C267.357 166.772 272.655 174.447 272.655 183.911C272.655 193.374 267.357 201.05 260.82 201.05Z" fill="white" stroke="#030000" stroke-width="2" stroke-miterlimit="10"/>
<path d="M208.852 129.533C204.791 131.857 193.296 140.081 186.891 146.925L208.852 129.533Z" fill="white"/>
<path d="M208.852 129.533C204.791 131.857 193.296 140.081 186.891 146.925" stroke="#050101" stroke-width="2" stroke-miterlimit="10"/>
<path d="M217.809 141.465C230.807 141.465 241.344 127.783 241.344 110.905C241.344 94.0272 230.807 80.345 217.809 80.345C204.811 80.345 194.273 94.0272 194.273 110.905C194.273 127.783 204.811 141.465 217.809 141.465Z" fill="white" stroke="#050101" stroke-width="2" stroke-miterlimit="10"/>
<path d="M231.178 124.932C236.794 124.932 241.347 119.02 241.347 111.727C241.347 104.434 236.794 98.5215 231.178 98.5215C225.561 98.5215 221.008 104.434 221.008 111.727C221.008 119.02 225.561 124.932 231.178 124.932Z" fill="#050101"/>
<path d="M280.403 141.465C293.401 141.465 303.938 127.783 303.938 110.905C303.938 94.0272 293.401 80.345 280.403 80.345C267.404 80.345 256.867 94.0272 256.867 110.905C256.867 127.783 267.404 141.465 280.403 141.465Z" fill="white" stroke="#050101" stroke-width="2" stroke-miterlimit="10"/>
<path d="M293.951 124.932C299.568 124.932 304.121 119.02 304.121 111.727C304.121 104.434 299.568 98.5215 293.951 98.5215C288.334 98.5215 283.781 104.434 283.781 111.727C283.781 119.02 288.334 124.932 293.951 124.932Z" fill="#050101"/>
</g>
<defs>
<clipPath id="clip0_895_110">
<rect width="364" height="283" fill="white" transform="translate(78 23)"/>
</clipPath>
</defs>
</svg>
